PathFileType	4	(X/Y/Z)	s08c0302.trc
DataRate	CameraRate	NumFrames	NumMarkers	Units	OrigDataRate	OrigDataStartFrame	OrigNumFrames
200	200	4	50	mm	200	250	2000
Frame#	Time	racr			lacr			c7			jug			rlel			rdr			llel			ldr			s2			lic			ric			lasi			rasi			rpsi			lpsi			rgt			lgt			rth1			rth2			rth3			rth4			rlfc			rmfc			rsh1			rsh2			rsh3			rsh4			rlmal			rmmal			rcal			rtoe			rmt5			lth1			lth2			lth4			lth3			llfc			lmfc			llmal			lmmal			lcal			lmt5			lsh1			lsh2			lsh3			lsh4			ltoe			SBIKE			LBIKE			RBIKE			
		X1	Y1	Z1	X2	Y2	Z2	X3	Y3	Z3	X4	Y4	Z4	X5	Y5	Z5	X6	Y6	Z6	X7	Y7	Z7	X8	Y8	Z8	X9	Y9	Z9	X10	Y10	Z10	X11	Y11	Z11	X12	Y12	Z12	X13	Y13	Z13	X14	Y14	Z14	X15	Y15	Z15	X16	Y16	Z16	X17	Y17	Z17	X18	Y18	Z18	X19	Y19	Z19	X20	Y20	Z20	X21	Y21	Z21	X22	Y22	Z22	X23	Y23	Z23	X24	Y24	Z24	X25	Y25	Z25	X26	Y26	Z26	X27	Y27	Z27	X28	Y28	Z28	X29	Y29	Z29	X30	Y30	Z30	X31	Y31	Z31	X32	Y32	Z32	X33	Y33	Z33	X34	Y34	Z34	X35	Y35	Z35	X36	Y36	Z36	X37	Y37	Z37	X38	Y38	Z38	X39	Y39	Z39	X40	Y40	Z40	X41	Y41	Z41	X42	Y42	Z42	X43	Y43	Z43	X44	Y44	Z44	X45	Y45	Z45	X46	Y46	Z46	X47	Y47	Z47	X48	Y48	Z48	X49	Y49	Z49	X50	Y50	Z50	
250	1.2500	516.665974	1354.014504	-66.144218	514.996851	1356.029415	-412.783295	497.704010	1422.187327	-244.326762	475.446803	1265.982694	-233.168082	595.923787	1115.925249	7.245262	799.999918	891.144625	-60.629430	628.307558	1127.855762	-459.691803	805.196277	884.828872	-415.136484	-59.048579	1209.787195	-250.335091	115.944441	1168.115140	-389.329440	100.139665	1206.114986	-85.161990	130.899320	1112.204294	-362.551707	115.053578	1152.159678	-117.603375	-26.722542	1252.298617	-201.743197	-17.599453	1245.290422	-296.652880	14.148157	1120.406390	-38.864603	21.859668	1063.394715	-419.538701	157.844928	1030.759479	-39.802241	245.043086	1013.591396	-40.982736	309.942135	954.836844	-46.177578	260.830274	1045.009001	-53.490080	410.228648	886.359139	-66.266086	392.493168	874.064559	-175.648421	350.340254	771.264786	-35.734376	347.457742	682.646010	-54.547733	301.543361	609.700687	-58.462245	373.582550	679.385525	-85.918753	259.906912	498.622436	-68.412087	272.502413	521.740880	-155.271101	183.603448	455.108651	-110.275520	479.231722	500.981852	-109.743644	397.369688	453.855324	-42.635177	54.096275	929.354627	-434.193497	92.177350	850.843967	-427.449835	126.627124	857.594491	-416.584328	84.578419	762.184309	-421.593468	102.153904	636.264332	-393.513253	90.369842	615.517332	-293.015044	7.709685	224.902392	-396.699425	22.489646	250.085171	-310.019526	-53.758585	175.995346	-358.026708	159.392094	193.708228	-419.056144	70.841432	510.836300	-423.747861	69.976419	427.200735	-403.558329	32.663425	347.399280	-408.387395	87.243615	427.573297	-368.951383	225.788341	249.492382	-349.620987	-146.209169	935.411945	-226.354200	11.069348	80.254462	-426.599364	10.491159	80.004822	-28.654504	
251	1.2550	516.627912	1353.873643	-66.113692	514.830981	1355.963902	-412.690066	497.610463	1422.183902	-244.342349	475.391446	1266.046867	-233.187173	595.996972	1115.926704	7.199851	800.143934	891.165835	-60.559265	628.320604	1127.868303	-459.592264	805.173435	884.814437	-415.088468	-59.171140	1209.770115	-250.378288	115.818491	1168.082507	-389.245701	100.048271	1206.118581	-85.214369	130.713277	1112.187871	-362.426693	114.992324	1152.191621	-117.652482	-26.866519	1252.291145	-201.820115	-17.663175	1245.296373	-296.700859	14.071891	1120.419579	-38.923051	21.772736	1063.390596	-419.534879	157.779021	1030.795691	-39.792760	244.969760	1013.618300	-40.962101	309.885030	954.853304	-46.172517	260.749686	1045.046949	-53.447716	410.190353	886.426740	-66.247012	392.388958	874.169570	-175.615193	350.239602	771.366420	-35.703550	347.309514	682.742703	-54.516542	301.396760	609.825205	-58.439404	373.404941	679.500257	-85.942590	259.735090	498.739564	-68.448755	272.348490	521.855192	-155.249742	183.446174	455.197701	-110.286568	479.046735	501.175079	-109.719086	397.216429	453.970014	-42.671461	53.910947	929.373753	-434.264719	91.918579	850.841403	-427.575412	126.367763	857.561874	-416.712760	84.234838	762.179160	-421.728978	101.739819	636.249670	-393.655135	90.130457	615.484237	-293.127463	7.846916	224.784829	-396.748484	22.817621	249.831536	-310.213726	-53.550416	175.843967	-358.063244	159.572655	193.568676	-419.077702	70.619719	510.816822	-423.844800	69.860287	427.161966	-403.666796	32.679749	347.339362	-408.451622	87.140319	427.554984	-369.007012	225.984576	249.303436	-349.631608	-146.214383	935.402642	-226.386768	11.080040	80.276768	-426.595036	10.519053	79.924394	-28.662623	
252	1.2600	516.577822	1353.697728	-66.100368	514.686331	1355.885626	-412.604949	497.487026	1422.188378	-244.302991	475.341395	1266.136692	-233.218947	596.087732	1115.916282	7.164640	800.298125	891.188623	-60.490200	628.350013	1127.861007	-459.426430	805.188458	884.838942	-415.084845	-59.276991	1209.763152	-250.408342	115.655107	1168.033356	-389.122311	99.956255	1206.134693	-85.229381	130.579181	1112.175570	-362.319933	114.920200	1152.244265	-117.663476	-27.030552	1252.257385	-201.887504	-17.782729	1245.302682	-296.720296	13.961458	1120.477718	-38.948499	21.701776	1063.317069	-419.274032	157.710005	1030.833238	-39.754497	244.922570	1013.669208	-40.939341	309.811953	954.908622	-46.111015	260.690901	1045.108029	-53.397967	410.132053	886.523712	-66.211663	392.272758	874.262782	-175.539930	350.266918	771.421190	-35.752617	347.192205	682.837861	-54.493913	301.279750	609.918646	-58.410235	373.261956	679.582300	-85.941111	259.606996	498.858847	-68.472112	272.187740	521.952054	-155.257192	183.309751	455.304693	-110.331265	478.859475	501.373322	-109.730112	397.067855	454.139475	-42.657061	53.703747	929.388392	-434.324835	91.633198	850.817986	-427.676266	126.119418	857.530759	-416.799794	83.743283	762.310807	-422.327824	101.397682	636.250970	-393.726808	89.921770	615.461680	-293.220394	7.997336	224.661011	-396.814175	22.932743	249.773093	-310.202876	-53.385484	175.711220	-358.108850	159.744549	193.402129	-419.073795	70.393549	510.778829	-423.907322	69.759253	427.131181	-403.713876	32.649069	347.247548	-408.501694	87.031450	427.552472	-369.074638	226.135556	249.135728	-349.648109	-146.407524	935.279849	-225.957439	11.060902	80.250796	-426.609960	10.586193	79.959055	-28.675462	
253	1.2650	516.419483	1353.583084	-65.984602	514.033578	1355.032573	-410.156661	497.344574	1422.180568	-244.258328	475.153718	1266.181244	-233.189931	596.104928	1115.918564	7.160170	800.293811	891.198161	-60.502981	628.258683	1127.880445	-459.319617	805.218476	884.849357	-415.116990	-59.362734	1209.746994	-250.472904	115.684632	1168.103825	-389.295320	99.721597	1206.194501	-85.230050	130.545002	1112.175379	-362.372593	114.771964	1152.337899	-117.662642	-27.147540	1252.257884	-201.915744	-17.899828	1245.292594	-296.774132	13.742130	1120.648449	-38.880168	21.611154	1063.316561	-419.291205	157.533196	1030.912062	-39.714317	244.744817	1013.751292	-40.873928	309.657817	954.996010	-46.068555	260.540679	1045.206369	-53.344785	409.973980	886.631451	-66.136425	392.209417	874.400823	-175.527732	350.083497	771.570875	-35.697680	347.037714	682.961049	-54.425123	301.096273	610.093170	-58.348223	373.142592	679.777978	-85.904321	259.422253	499.059117	-68.437219	272.050227	522.087174	-155.266084	183.130360	455.452801	-110.323098	478.710170	501.491826	-109.722139	396.846746	454.294536	-42.664302	53.528814	929.399411	-434.402155	91.402679	850.796644	-427.777125	125.900075	857.493646	-416.888907	83.581583	762.151074	-421.944345	101.111090	636.251237	-393.753573	89.615892	615.485319	-293.232850	8.140499	224.572237	-396.876671	23.004760	249.684455	-310.258170	-53.205352	175.586642	-358.115019	159.962769	193.260534	-419.060012	70.198096	510.726356	-423.964282	69.669779	427.075241	-403.769375	32.671186	347.162198	-408.526590	86.973077	427.523057	-369.122144	226.315894	248.998071	-349.654570	-146.388912	935.206356	-225.795812	11.077790	80.270717	-426.609903	10.510530	79.973577	-28.667715	
